<svg width="340" height="340" viewBox="0 0 340 340" fill="none" xmlns="http://www.w3.org/2000/svg">
  <rect width="340" height="340" rx="64" fill="#0F172A"/>
  <g transform="translate(20,20)">
    <circle cx="150" cy="16" r="32" fill="#20CFE0"/>
    <circle cx="284" cy="150" r="32" fill="#20CFE0"/>
    <circle cx="150" cy="284" r="32" fill="#20CFE0"/>
    <circle cx="16" cy="150" r="32" fill="#20CFE0"/>
    <circle cx="56" cy="56" r="32" fill="#20CFE0"/>
    <circle cx="244" cy="56" r="32" fill="#20CFE0"/>
    <circle cx="56" cy="244" r="32" fill="#20CFE0"/>
    <circle cx="244" cy="244" r="32" fill="#20CFE0"/>

    <path d="M150 72C122 72 100 94 100 122C100 150 122 172 150 172C178 172 200 194 200 222C200 250 178 272 150 272C122 272 100 250 100 222" stroke="#E2E8F0" stroke-width="20" stroke-linecap="round"/>
    <path d="M150 272C178 272 200 250 200 222C200 194 178 172 150 172C122 172 100 150 100 122C100 94 122 72 150 72C178 72 200 94 200 122" stroke="#E2E8F0" stroke-width="20" stroke-linecap="round" opacity="0.92"/>
  </g>
</svg>
